<svg width="50" height="68" viewBox="0 0 50 68" fill="none" xmlns="http://www.w3.org/2000/svg">
<path d="M30.9494 0.879883H19.4888C18.6976 0.879883 18.0562 1.52459 18.0562 2.31988V13.8399C18.0562 14.6352 18.6976 15.2799 19.4888 15.2799H30.9494C31.7406 15.2799 32.382 14.6352 32.382 13.8399V2.31988C32.382 1.52459 31.7406 0.879883 30.9494 0.879883Z" fill="white"/>
<path d="M48.1403 0.879883H36.6797C35.8885 0.879883 35.2471 1.52459 35.2471 2.31988V13.8399C35.2471 14.6352 35.8885 15.2799 36.6797 15.2799H48.1403C48.9315 15.2799 49.5729 14.6352 49.5729 13.8399V2.31988C49.5729 1.52459 48.9315 0.879883 48.1403 0.879883Z" fill="white"/>
<path d="M13.7584 18.1602H2.2977C1.5065 18.1602 0.865112 18.8049 0.865112 19.6002V31.1202C0.865112 31.9154 1.5065 32.5602 2.2977 32.5602H13.7584C14.5496 32.5602 15.191 31.9154 15.191 31.1202V19.6002C15.191 18.8049 14.5496 18.1602 13.7584 18.1602Z" fill="white"/>
<path d="M30.9494 18.1602H19.4888C18.6976 18.1602 18.0562 18.8049 18.0562 19.6002V31.1202C18.0562 31.9154 18.6976 32.5602 19.4888 32.5602H30.9494C31.7406 32.5602 32.382 31.9154 32.382 31.1202V19.6002C32.382 18.8049 31.7406 18.1602 30.9494 18.1602Z" fill="white"/>
<path d="M13.7584 35.4399H2.2977C1.5065 35.4399 0.865112 36.0847 0.865112 36.8799V48.3999C0.865112 49.1952 1.5065 49.8399 2.2977 49.8399H13.7584C14.5496 49.8399 15.191 49.1952 15.191 48.3999V36.8799C15.191 36.0847 14.5496 35.4399 13.7584 35.4399Z" fill="white"/>
<path d="M30.9494 35.4399H19.4888C18.6976 35.4399 18.0562 36.0847 18.0562 36.8799V48.3999C18.0562 49.1952 18.6976 49.8399 19.4888 49.8399H30.9494C31.7406 49.8399 32.382 49.1952 32.382 48.3999V36.8799C32.382 36.0847 31.7406 35.4399 30.9494 35.4399Z" fill="white"/>
<path d="M48.1403 35.4399H36.6797C35.8885 35.4399 35.2471 36.0847 35.2471 36.8799V48.3999C35.2471 49.1952 35.8885 49.8399 36.6797 49.8399H48.1403C48.9315 49.8399 49.5729 49.1952 49.5729 48.3999V36.8799C49.5729 36.0847 48.9315 35.4399 48.1403 35.4399Z" fill="white"/>
<path d="M13.7584 52.7197H2.2977C1.5065 52.7197 0.865112 53.3644 0.865112 54.1597V65.6797C0.865112 66.475 1.5065 67.1197 2.2977 67.1197H13.7584C14.5496 67.1197 15.191 66.475 15.191 65.6797V54.1597C15.191 53.3644 14.5496 52.7197 13.7584 52.7197Z" fill="white"/>
<path d="M30.9494 52.7197H19.4888C18.6976 52.7197 18.0562 53.3644 18.0562 54.1597V65.6797C18.0562 66.475 18.6976 67.1197 19.4888 67.1197H30.9494C31.7406 67.1197 32.382 66.475 32.382 65.6797V54.1597C32.382 53.3644 31.7406 52.7197 30.9494 52.7197Z" fill="white"/>
</svg>
