<svg width="82" height="73" viewBox="0 0 82 73" fill="none" xmlns="http://www.w3.org/2000/svg">
<path d="M45.2862 49.9854C44.4036 49.9842 43.5367 49.7496 42.7714 49.305L28.4191 41.059C27.639 40.6102 26.9897 39.9613 26.537 39.1778C26.0842 38.3942 25.8439 37.5038 25.8404 36.5964C25.8368 35.689 26.0702 34.7967 26.5168 34.0096C26.9634 33.2225 27.6076 32.5684 28.3842 32.1134L42.7365 23.7134C43.5068 23.2564 44.3835 23.0149 45.2767 23.0137C45.9481 23.0133 46.6129 23.1465 47.2333 23.4058C47.8537 23.6651 48.4175 24.0454 48.8925 24.525C49.3675 25.0046 49.7444 25.574 50.0017 26.2008C50.259 26.8277 50.3917 27.4996 50.3921 28.1782V44.8209C50.3913 46.1898 49.8531 47.5025 48.8959 48.4707C47.9386 49.439 46.6404 49.9837 45.2862 49.9854ZM45.2862 25.6521C44.8502 25.6537 44.4226 25.7734 44.0479 25.9988L29.6956 34.3956C29.3157 34.6164 29.0001 34.9346 28.7806 35.3181C28.5612 35.7016 28.4456 36.1368 28.4456 36.5798C28.4456 37.0228 28.5612 37.458 28.7806 37.8415C29.0001 38.225 29.3157 38.5432 29.6956 38.7641L44.0479 47.01C44.4215 47.2239 44.8442 47.3346 45.2735 47.331C45.9355 47.3293 46.5698 47.0625 47.0376 46.589C47.5054 46.1156 47.7685 45.474 47.7693 44.8049V28.1782C47.7677 27.511 47.5056 26.8714 47.04 26.3984C46.5745 25.9254 45.9431 25.6572 45.2831 25.6521H45.2862Z" fill="white"/>
<path d="M35.9574 49.9854C34.6032 49.9837 33.305 49.439 32.3478 48.4707C31.3905 47.5025 30.8524 46.1898 30.8516 44.8209V28.1782C30.8524 26.8087 31.3909 25.4956 32.3489 24.5273C33.3068 23.5589 34.6059 23.0145 35.9606 23.0137C36.8538 23.0149 37.7305 23.2564 38.5008 23.7134L52.8531 32.1134C53.6306 32.5678 54.2755 33.2216 54.7228 34.0088C55.17 34.796 55.4037 35.6887 55.4001 36.5965C55.3966 37.5042 55.156 38.395 54.7026 39.1786C54.2492 39.9622 53.5992 40.6109 52.8182 41.059L38.4659 49.305C37.7025 49.7485 36.8379 49.983 35.9574 49.9854ZM35.9574 25.6521C35.2952 25.6538 34.6605 25.9205 34.1922 26.3939C33.724 26.8672 33.4601 27.5088 33.4585 28.1782V44.8209C33.4593 45.4901 33.7224 46.1316 34.1902 46.6051C34.658 47.0785 35.2923 47.3453 35.9542 47.347C36.3836 47.3507 36.8063 47.24 37.1799 47.026L51.5322 38.7801C51.9129 38.5599 52.2293 38.2419 52.4494 37.8584C52.6695 37.4748 52.7854 37.0393 52.7854 36.5959C52.7854 36.1524 52.6695 35.7169 52.4494 35.3333C52.2293 34.9498 51.9129 34.6318 51.5322 34.4116L37.199 25.9988C36.8242 25.7734 36.3966 25.6537 35.9606 25.6521H35.9574Z" fill="white"/>
<path d="M57.9205 72.9999C56.7313 72.9946 55.5651 72.6688 54.542 72.0562L53.1671 71.2377L3.3151 42.6065C2.30047 42.013 1.45808 41.1603 0.872439 40.1338C0.286801 39.1073 -0.0214844 37.9432 -0.0214844 36.7582C-0.0214844 35.5733 0.286801 34.4092 0.872439 33.3827C1.45808 32.3562 2.30047 31.5035 3.3151 30.91L53.1131 1.78771L54.5547 0.933907C55.5694 0.328033 56.7248 0.00482825 57.9033 -0.00279176C59.0817 -0.0104118 60.2412 0.297825 61.2635 0.890528C62.2857 1.48323 63.1344 2.33922 63.7229 3.37133C64.3115 4.40344 64.6189 5.57478 64.614 6.76607V66.2337C64.6114 68.0274 63.9054 69.7469 62.6507 71.0153C61.396 72.2836 59.6949 72.9973 57.9205 72.9999ZM57.9205 2.88866C57.2414 2.89066 56.5755 3.07808 55.9931 3.43111L54.5515 4.28492L4.76303 33.4072C4.17854 33.7463 3.69291 34.2353 3.3552 34.8248C3.01749 35.4143 2.83965 36.0835 2.83965 36.7647C2.83965 37.4459 3.01749 38.115 3.3552 38.7045C3.69291 39.2941 4.17854 39.783 4.76303 40.1221L54.615 68.7662L55.9835 69.5782C56.5673 69.9338 57.2357 70.1224 57.9173 70.1239C58.9355 70.1214 59.9113 69.7113 60.6313 68.9835C61.3513 68.2557 61.7569 67.2693 61.7594 66.2401V6.79175C61.7586 5.76073 61.3545 4.77184 60.6354 4.04069C59.9163 3.30954 58.9404 2.89544 57.9205 2.88866Z" fill="white"/>
<path d="M23.3224 73.0001C21.5482 72.9976 19.8475 72.2838 18.5933 71.0153C17.3391 69.7469 16.6338 68.0273 16.6321 66.2339V6.76633C16.6272 5.57415 16.9352 4.40199 17.5247 3.36941C18.1142 2.33683 18.9641 1.48077 19.9877 0.888544C21.0113 0.296314 22.1719 -0.0108963 23.3512 -0.00175492C24.5306 0.00738649 25.6864 0.332553 26.7009 0.94058L28.079 1.76228L77.9309 30.3935C78.9489 30.9839 79.7946 31.8354 80.3828 32.8619C80.971 33.8885 81.2807 35.0538 81.2807 36.2401C81.2807 37.4264 80.971 38.5917 80.3828 39.6183C79.7946 40.6449 78.9489 41.4964 77.9309 42.0867L28.1298 71.2091L26.6882 72.0629C25.6685 72.6719 24.5068 72.9954 23.3224 73.0001ZM23.3256 2.88892C22.3079 2.8906 21.3323 3.29935 20.6118 4.02587C19.8913 4.75238 19.4845 5.73761 19.4803 6.76633V66.205C19.4786 67.2383 19.8819 68.2301 20.602 68.9634C21.3221 69.6967 22.3003 70.1118 23.3224 70.1177C24.0009 70.1147 24.6663 69.9285 25.2498 69.5785L26.6914 68.7247L76.4735 39.5927C77.0565 39.2532 77.5407 38.7645 77.8774 38.1756C78.2141 37.5868 78.3913 36.9186 78.3913 36.2385C78.3913 35.5584 78.2141 34.8903 77.8774 34.3014C77.5407 33.7126 77.0565 33.2238 76.4735 32.8843L26.6215 4.24023L25.2498 3.42495C24.6673 3.07574 24.0028 2.89065 23.3256 2.88892Z" fill="white"/>
<path d="M40.6213 70.7017C33.9263 70.7056 27.3807 68.7017 21.8129 64.9437C16.245 61.1856 11.9052 55.8423 9.34264 49.5901C6.78008 43.3378 6.10998 36.4576 7.41716 29.8201C8.72434 23.1827 11.95 17.0865 16.686 12.303C23.0508 5.96597 31.6358 2.4292 40.5694 2.46363C49.503 2.49806 58.061 6.10091 64.3779 12.4868C70.6947 18.8727 74.2583 27.5239 74.2918 36.5546C74.3252 45.5853 70.8259 54.2633 64.5566 60.6968C61.4195 63.8814 57.6888 66.4055 53.5803 68.1228C49.4718 69.8401 45.0671 70.7167 40.6213 70.7017V70.7017ZM40.6213 9.07397C34.3418 9.07791 28.2579 11.2827 23.4062 15.3127C18.5546 19.3427 15.2353 24.9485 14.0141 31.175C12.7928 37.4015 13.745 43.8635 16.7086 49.4598C19.6721 55.0562 24.4636 59.4406 30.2665 61.8662C36.0695 64.2918 42.525 64.6084 48.533 62.762C54.541 60.9157 59.7298 57.0206 63.2153 51.7406C66.7008 46.4605 68.2674 40.1221 67.6481 33.8053C67.0288 27.4885 64.262 21.5842 59.819 17.0984C57.304 14.542 54.3121 12.5155 51.0167 11.1364C47.7213 9.75726 44.1879 9.05298 40.6213 9.06434V9.07397Z" fill="white"/>
</svg>
